<?xml version="1.0" encoding="UTF-8"?>
<svg version="1.1" xmlns="http://www.w3.org/2000/svg" width="512" height="512">
<path d="M0 0 C1.10968643 -0.01182816 2.21937286 -0.02365631 3.36268616 -0.0358429 C7.02535859 -0.06869935 10.68728761 -0.07168687 14.35009766 -0.0715332 C16.90068871 -0.08184899 19.45127685 -0.0929122 22.00186157 -0.10469055 C27.34654505 -0.12412087 32.6909542 -0.12776916 38.03564453 -0.12109375 C44.19927877 -0.11385548 50.36176846 -0.14725987 56.52515447 -0.20015115 C62.47109496 -0.24932065 68.41668553 -0.25942183 74.36284256 -0.25470924 C76.8849932 -0.25757934 79.40715725 -0.27163967 81.92918015 -0.2971859 C85.46022682 -0.3291948 88.988477 -0.31659185 92.51953125 -0.29296875 C93.5566777 -0.3118515 94.59382416 -0.33073425 95.66239929 -0.35018921 C102.25918513 -0.2454294 105.68070736 1.17099557 110.44121742 5.77113628 C112.88557648 8.79977855 113.01064867 11.49148901 112.98681641 15.2331543 C112.98359375 16.12583008 112.98037109 17.01850586 112.97705078 17.93823242 C112.96867187 18.86700195 112.96029297 19.79577148 112.95166016 20.75268555 C112.94714844 21.69305664 112.94263672 22.63342773 112.93798828 23.60229492 C112.92620641 25.92332267 112.90975574 28.24422199 112.88916016 30.56518555 C113.75442164 30.55965479 113.75442164 30.55965479 114.63716316 30.5540123 C128.68418245 30.4656084 142.73115995 30.39945034 156.77839851 30.35793686 C163.5716057 30.3373267 170.36462699 30.30923608 177.15771484 30.26342773 C183.71291278 30.21924471 190.26799009 30.19605012 196.82332993 30.18567657 C199.32479772 30.17828351 201.82625491 30.16384672 204.32764053 30.14226532 C207.83031338 30.11324582 211.3321873 30.1092291 214.83496094 30.11108398 C215.87002274 30.09670288 216.90508453 30.08232178 217.97151184 30.06750488 C223.77083635 30.10075506 227.428064 30.474513 231.88916016 34.56518555 C236.37402432 39.62204442 236.47088882 43.89414969 236.43505859 50.33422852 C236.44539627 51.30070816 236.45573395 52.26718781 236.46638489 53.26295471 C236.49578712 56.44459808 236.49731155 59.62560456 236.49853516 62.80737305 C236.5135185 65.01841442 236.53024596 67.22944461 236.54864502 69.44046021 C236.59231315 75.2502494 236.61231661 81.05988761 236.62738037 86.86981201 C236.64695323 92.80221482 236.68892313 98.73445462 236.72900391 104.66674805 C236.80430037 116.29951026 236.8545954 127.93223598 236.88916016 139.56518555 C237.60468552 138.84299835 238.32021088 138.12081116 239.05741882 137.3767395 C245.8026897 130.57064441 252.5558751 123.77249154 259.31688213 116.98202705 C262.79250042 113.49075529 266.26527389 109.99674893 269.73168945 106.49633789 C273.07728781 103.11813538 276.43016879 99.7473215 279.78821754 96.38149643 C281.06785793 95.09631449 282.34485558 93.8084956 283.61914635 92.51800919 C285.40493657 90.71043127 287.1999076 88.91247183 288.99731445 87.11645508 C289.52168091 86.5813028 290.04604736 86.04615051 290.58630371 85.49478149 C294.56808544 81.54618027 297.65587284 79.81801053 303.20166016 79.19018555 C312.86441895 80.17283898 318.67600133 86.76292843 325.18994141 93.3347168 C326.15722995 94.29930483 327.12511109 95.26329893 328.09355164 96.22673035 C330.11116391 98.23847667 332.12144398 100.25719821 334.12670898 102.28125 C336.6863593 104.86371887 339.26359642 107.42776693 341.84660053 109.98685169 C343.84511511 111.97085569 345.83393577 113.96435846 347.82002831 115.96079063 C349.22329369 117.36798742 350.63455757 118.76719357 352.04597473 120.16621399 C361.4629688 129.72210194 361.4629688 129.72210194 362.10400391 137.0065918 C362.01248047 137.70655273 361.92095703 138.40651367 361.82666016 139.12768555 C361.75318359 139.83022461 361.67970703 140.53276367 361.60400391 141.2565918 C359.23142318 148.9188607 353.55554757 152.17841887 347.1406312 156.42781758 C329.41632399 168.24142297 312.8458617 181.50468796 296.70166016 195.37768555 C295.99101599 195.98619826 295.28037182 196.59471098 294.54819298 197.22166348 C256.72844316 229.7617103 233.69093604 262.66180876 229.70024109 313.37181091 C227.92562643 339.98685519 228.15596799 366.55861578 229.13916016 393.19018555 C229.17552789 394.19115315 229.17552789 394.19115315 229.21263033 395.21234232 C230.11643293 419.9785314 231.34811505 444.73049277 233.4315033 469.4276886 C233.52388191 470.5407162 233.61626052 471.65374379 233.71143848 472.8004995 C234.14545746 477.99293978 234.60460474 483.18052114 235.11637592 488.36588764 C235.27833553 490.17906814 235.43979092 491.99229378 235.60064697 493.80557251 C235.6902807 494.61281763 235.77991443 495.42006275 235.87226433 496.25176984 C236.31929443 501.60998379 235.4313107 504.26943507 231.88916016 508.56518555 C229.78883057 511.00156786 229.04235385 511.51412098 225.88916016 512.56518555 C223.89941887 512.66102657 221.9065686 512.6961355 219.91452312 512.69940662 C218.65822776 512.70386447 217.40193241 512.70832231 216.10756749 512.71291524 C214.70563804 512.71282594 213.3037086 512.71263608 211.90177917 512.71235657 C210.41853705 512.71565514 208.93529583 512.71938069 207.45205575 512.72349805 C203.36584955 512.73352673 199.27965804 512.73723623 195.19344127 512.73988736 C190.79046876 512.74378776 186.38750792 512.75336619 181.98454285 512.76210022 C171.34718853 512.78187069 160.70983325 512.79193096 150.07246515 512.80082801 C145.06585517 512.8052094 140.05924624 512.81057655 135.0526371 512.81581688 C118.41480192 512.8328287 101.77696741 512.84732405 85.13912487 512.85456562 C80.82069587 512.85647558 76.50226687 512.8583959 72.18383789 512.86035156 C71.11048694 512.8608353 70.03713599 512.86131904 68.93125925 512.86181744 C51.53404779 512.87012216 34.13690499 512.89546673 16.73972353 512.92793224 C-1.11233772 512.96097571 -18.96436403 512.97901187 -36.81645602 512.98220986 C-46.84355501 512.98437733 -56.87055383 512.99316067 -66.89762306 513.01867104 C-75.43494742 513.04034089 -83.97214728 513.04844676 -92.50949601 513.03870425 C-96.86670584 513.03414892 -101.2236586 513.03611711 -105.58083344 513.0554657 C-109.56883632 513.07302233 -113.55639317 513.07216118 -117.5444003 513.05656841 C-118.98788562 513.05418088 -120.43140123 513.05857494 -121.87484012 513.07039706 C-132.70822379 513.15363662 -132.70822379 513.15363662 -137.75886059 511.03470135 C-142.91320413 505.62277742 -144.71206339 499.88530275 -144.61420441 492.45039368 C-144.62292505 491.28022998 -144.62292505 491.28022998 -144.63182187 490.08642662 C-144.64638382 487.48047653 -144.63255483 484.87547397 -144.61877441 482.26953125 C-144.62338484 480.3791649 -144.6297387 478.48880213 -144.63768339 476.59844685 C-144.65438035 471.40994803 -144.64612857 466.22174353 -144.63373852 461.03324366 C-144.62469192 455.43533999 -144.63865584 449.8374871 -144.6496582 444.23959351 C-144.66745212 433.27572392 -144.66359951 422.31196382 -144.65200764 411.34808993 C-144.64297705 402.43815636 -144.6417477 393.52825349 -144.64610291 384.61831665 C-144.64671584 383.35059491 -144.64732877 382.08287316 -144.64796028 380.7767356 C-144.64923917 378.20144772 -144.65053602 375.62615984 -144.65185064 373.05087197 C-144.66293373 349.58647889 -144.65143678 326.12215934 -144.63048025 302.65777941 C-144.61149805 281.24114061 -144.61319657 259.82459695 -144.63232422 238.40795898 C-144.65374638 214.34183008 -144.66216034 190.27576611 -144.64987516 166.20962429 C-144.64860096 163.64376768 -144.64734347 161.07791107 -144.64610291 158.51205444 C-144.6454858 157.24957754 -144.6448687 155.98710064 -144.6442329 154.68636686 C-144.64077804 145.78631044 -144.64661128 136.88628776 -144.65602112 127.98623657 C-144.66723519 117.14122355 -144.66421342 106.29632635 -144.64289814 95.45132661 C-144.63237986 89.91718689 -144.62827932 84.38324034 -144.64149475 78.84910202 C-144.65340812 73.78364293 -144.64687326 68.71855617 -144.62558454 63.65313089 C-144.62111404 61.82013453 -144.62339478 59.98710676 -144.63308769 58.15413058 C-144.64525453 55.66229917 -144.63277429 53.17174244 -144.61420441 50.67997742 C-144.62356907 49.96849009 -144.63293374 49.25700277 -144.64258218 48.52395523 C-144.56214503 43.12269248 -143.01041681 39.03307246 -140.11083984 34.56518555 C-134.99563994 29.62487001 -129.77093465 30.01779588 -123.05664062 30.11108398 C-121.40209618 30.11020782 -121.40209618 30.11020782 -119.71412659 30.10931396 C-116.07781214 30.11209481 -112.44232314 30.14318847 -108.80615234 30.17456055 C-106.28124438 30.18202289 -103.75633062 30.18771585 -101.23141479 30.19171143 C-95.27097431 30.20540969 -89.3107975 30.23691681 -83.35049236 30.27710938 C-76.56213237 30.32188783 -69.77375797 30.34382931 -62.98528695 30.36389112 C-49.02697485 30.40565144 -35.06892352 30.47596537 -21.11083984 30.56518555 C-21.15724609 29.27483398 -21.20365234 27.98448242 -21.25146484 26.6550293 C-21.28900418 24.93760467 -21.32540201 23.22015482 -21.36083984 21.50268555 C-21.39435547 20.65512695 -21.42787109 19.80756836 -21.46240234 18.93432617 C-21.55557744 12.90123886 -20.77482712 9.42421503 -17.11083984 4.56518555 C-11.91709851 -0.31680478 -6.75301895 -0.0219467 0 0 Z " fill="#ECF4FE" transform="translate(147.11083984375,-0.565185546875)"/>
<path d="M0 0 C4.76670081 3.08061951 8.61141527 7.23526675 12.58950806 11.24868774 C13.5567966 12.21327578 14.52467774 13.17726987 15.49311829 14.14070129 C17.51073056 16.15244761 19.52101063 18.17116916 21.52627563 20.19522095 C24.08592595 22.77768982 26.66316307 25.34173788 29.24616718 27.90082264 C31.24468176 29.88482663 33.23350242 31.87832941 35.21959496 33.87476158 C36.62286034 35.28195837 38.03412422 36.68116452 39.44554138 38.08018494 C48.86253545 47.63607289 48.86253545 47.63607289 49.50357056 54.92056274 C49.41204712 55.62052368 49.32052368 56.32048462 49.22622681 57.04165649 C49.15275024 57.74419556 49.07927368 58.44673462 49.00357056 59.17056274 C47.30765333 64.64754133 43.28003937 68.73756817 39.30587769 72.70924377 C38.5741785 73.44456458 38.5741785 73.44456458 37.82769752 74.19474036 C36.20515333 75.82288369 34.57561112 77.44382916 32.94595337 79.06484985 C31.77567043 80.23620665 30.6058208 81.4079965 29.43637085 82.58018494 C26.26718181 85.75421018 23.09179522 88.92196723 19.9151125 92.08849025 C16.58434799 95.41044764 13.25888038 98.73769987 9.93270874 102.06425476 C4.34417382 107.65185382 -1.24821526 113.23557155 -6.84310913 118.81680298 C-13.298143 125.25613144 -19.7479559 131.70065107 -26.19477439 138.14820379 C-33.07328806 145.02739489 -39.95561193 151.90276441 -46.83904743 158.77703023 C-48.81461517 160.75047371 -50.78947783 162.7246204 -52.76418304 164.69892693 C-55.87757569 167.81130918 -58.99352732 170.92110778 -62.11141205 174.02898979 C-63.25060034 175.16527642 -64.38896596 176.30238856 -65.52641296 177.44041824 C-67.08880117 179.00330355 -68.65426629 180.56304472 -70.2204895 182.12208557 C-71.09284115 182.99276137 -71.96519279 183.86343718 -72.86397934 184.76049709 C-75.07209541 186.86885535 -77.30326132 188.88071361 -79.61050701 190.87586689 C-83.50970327 194.26169255 -87.18087938 197.82160882 -90.8143158 201.48886108 C-91.48183127 202.1583444 -92.14934674 202.82782771 -92.83708996 203.51759839 C-95.05089203 205.73905795 -97.26106154 207.96409576 -99.47128296 210.18911743 C-101.06674839 211.79142015 -102.66246846 213.39346935 -104.25842285 214.99528503 C-107.68359855 218.43374822 -111.10734646 221.87362456 -114.53009224 225.31450653 C-119.94320205 230.75553154 -125.3617938 236.19107449 -130.78157043 241.62545776 C-132.63951495 243.48854541 -134.49745271 245.3516398 -136.35538387 247.21474075 C-137.75046368 248.6136989 -137.75046368 248.6136989 -139.17372692 250.04091883 C-143.97365855 254.85441813 -148.77273764 259.66876707 -153.57138062 264.48355103 C-154.29304565 265.20763817 -154.29304565 265.20763817 -155.02928977 265.94635335 C-162.83665834 273.7802944 -170.63840602 281.61981369 -178.4385692 289.46092817 C-186.46024921 297.52436162 -194.48971575 305.57997405 -202.52564472 313.62921166 C-207.03212103 318.14376264 -211.53479986 322.66196425 -216.02874947 327.18898773 C-220.2514473 331.44271249 -224.48332015 335.68708559 -228.72243118 339.92445183 C-230.27591964 341.48063793 -231.82597288 343.04026204 -233.37230873 344.60355568 C-235.48413386 346.73753139 -237.60796573 348.85880128 -239.73521423 350.97738647 C-240.34359196 351.59809768 -240.95196968 352.21880889 -241.57878309 352.85832953 C-266.32531153 377.28962589 -325.46809057 371.405138 -357.08627319 371.29165649 C-358.18992973 371.28939938 -359.29358627 371.28714226 -360.43068695 371.28481674 C-366.86278078 371.27085824 -373.29399126 371.23315184 -379.72567749 371.15839767 C-381.7159745 371.13543911 -383.70631696 371.11610599 -385.69668579 371.10057449 C-388.44862541 371.07540048 -391.1994674 371.0302035 -393.95101929 370.97842407 C-394.75487753 370.97352557 -395.55873577 370.96862707 -396.38695335 370.96358013 C-402.03683652 370.82329488 -406.02107984 369.51617533 -410.60971069 366.04165649 C-413.91719036 362.54167801 -415.18143969 359.82960381 -415.46127319 354.97915649 C-415.18463562 350.07390004 -413.855646 347.35266677 -410.51205444 343.81900024 C-405.8635013 340.36031537 -401.2285006 340.19821194 -395.61630249 340.25210571 C-394.81577957 340.25181366 -394.01525665 340.25152161 -393.19047546 340.2512207 C-390.55536911 340.25260945 -387.92054865 340.2681491 -385.28549194 340.28384399 C-383.45417943 340.28757574 -381.62286491 340.29042195 -379.79154968 340.29241943 C-374.97959854 340.30004312 -370.16776878 340.31968077 -365.35586548 340.34182739 C-360.44245038 340.36231305 -355.5290156 340.37142697 -350.61557007 340.38150024 C-340.98074262 340.40292786 -331.34603701 340.43809971 -321.71127319 340.47915649 C-319.73127319 330.57915649 -317.75127319 320.67915649 -315.71127319 310.47915649 C-319.60166382 310.51057739 -319.60166382 310.51057739 -323.57064819 310.54263306 C-332.1560153 310.6090197 -340.74139397 310.65313846 -349.32695007 310.68640518 C-354.53055439 310.70724758 -359.7338949 310.73550414 -364.93734741 310.78091431 C-369.96239807 310.82449133 -374.98719557 310.84831877 -380.01242065 310.85866547 C-381.92611677 310.86603556 -383.8397996 310.88042765 -385.75338745 310.90207672 C-388.44147288 310.93126849 -391.12852259 310.93510595 -393.81674194 310.93325806 C-394.60149399 310.94763916 -395.38624603 310.96202026 -396.19477844 310.97683716 C-401.74103429 310.93579304 -406.11460341 309.66183776 -410.71127319 306.47915649 C-414.62838782 302.10954512 -415.35251677 297.62142454 -415.09799194 291.84634399 C-414.36108298 287.33556792 -412.14479378 284.66257113 -408.70201111 281.82044983 C-404.28978522 279.84164415 -400.31649553 280.24637451 -395.54696655 280.45596313 C-393.42847965 280.52164885 -391.30998457 280.58707118 -389.19148254 280.65226746 C-387.50911908 280.71216449 -387.50911908 280.71216449 -385.79276848 280.77327156 C-379.81577646 280.97191029 -373.83678224 281.07373693 -367.85775757 281.19204712 C-360.26512973 281.34723419 -352.6766684 281.53012033 -345.08798218 281.82315063 C-314.23150136 284.71309712 -314.23150136 284.71309712 -287.05589294 273.49293518 C-284.02719323 270.09331613 -281.44042186 266.63038095 -279.09411621 262.73010254 C-277.33345772 259.86416098 -275.1891551 257.73817026 -272.71127319 255.47915649 C-271.04046351 253.81664316 -269.37328435 252.1504657 -267.71127319 250.47915649 C-268.40665003 250.47676814 -269.10202686 250.47437979 -269.81847572 250.47191906 C-286.74475475 250.41276254 -303.67087325 250.33720836 -320.5969944 250.24344158 C-328.78237241 250.19849122 -336.96770698 250.15907482 -345.15316772 250.13272095 C-352.2882808 250.10973469 -359.42325634 250.07632971 -366.55826032 250.03045493 C-370.33561004 250.00653107 -374.11282361 249.98779686 -377.89024734 249.98154259 C-381.44766761 249.97548787 -385.00473956 249.95547446 -388.56203079 249.92488098 C-390.48598426 249.91193177 -392.41001912 249.91366964 -394.33401489 249.9158783 C-401.55951016 249.83727648 -406.39095913 249.35077947 -412.02377319 244.47915649 C-415.21430224 240.69778873 -415.05356693 236.71348637 -414.98471069 231.98306274 C-414.43231045 226.9246548 -411.85890663 224.40778624 -408.04469299 221.32144165 C-401.98714647 218.00998589 -394.62563529 219.15869571 -387.9390564 219.37759399 C-386.32835124 219.4147358 -384.71759378 219.44966572 -383.10679626 219.4825592 C-379.64228375 219.55520551 -376.17820657 219.63794771 -372.71407509 219.72686768 C-367.20759353 219.86250883 -361.70122052 219.94088631 -356.1934967 220.00527954 C-354.79397175 220.02192044 -354.79397175 220.02192044 -353.36617357 220.03889751 C-351.45798785 220.06133981 -349.5497998 220.08358534 -347.64160955 220.1056385 C-334.83041253 220.25454685 -322.02345309 220.43272035 -309.21640015 220.79898071 C-300.56341174 221.04602218 -291.91513676 221.18968488 -283.25859517 221.21998596 C-278.6901756 221.23985105 -274.13525129 221.30762912 -269.57067299 221.50253296 C-252.32555107 222.21236699 -238.29211569 222.37180337 -225.01531452 210.18628597 C-218.72368703 204.06998994 -213.0649693 197.42179626 -207.71127319 190.47915649 C-210.20357469 190.43829643 -212.69587948 190.39765842 -215.18818665 190.35714722 C-215.88964483 190.34562433 -216.59110301 190.33410145 -217.3138175 190.32222939 C-220.19952471 190.27546118 -223.08507515 190.23098431 -225.97103214 190.20302963 C-227.99017431 190.18283501 -230.00901192 190.13674302 -232.02767944 190.08853149 C-233.33164673 190.06758423 -234.63561401 190.04663696 -235.97909546 190.02505493 C-241.16949806 189.26586476 -244.99339313 187.36882456 -248.58627319 183.41665649 C-251.17377137 178.96040964 -251.32072166 174.49208471 -250.71127319 169.47915649 C-248.4980727 164.96763242 -245.54896564 161.19872215 -240.71127319 159.47915649 C-236.34684488 159.39408458 -232.08150446 160.03521799 -227.75668335 160.57705688 C-203.25323434 162.82462157 -179.5312461 164.40967087 -159.60681391 147.95877385 C-148.03736961 138.06956045 -137.79471691 126.63521014 -127.77788281 115.21201289 C-122.52804046 109.23969656 -117.08062896 103.46228532 -111.61457515 97.68839538 C-98.78729264 84.12706493 -86.24993293 70.31746644 -74.01260376 56.21998596 C-71.15143731 52.94613832 -68.19381735 49.82352821 -65.13070679 46.73745728 C-64.62077682 46.22256241 -64.11084686 45.70766754 -63.58546448 45.1771698 C-61.92957654 43.50689898 -60.27001807 41.84034609 -58.60971069 40.17446899 C-58.03764515 39.59957607 -57.46557961 39.02468315 -56.87617874 38.43236923 C-53.85807321 35.39938099 -50.8371892 32.36919447 -47.81381226 29.34146118 C-44.69901487 26.221146 -41.59363008 23.09163293 -38.49027061 19.95994759 C-36.09150482 17.54256261 -33.68606164 15.13190736 -31.27873611 12.72304916 C-30.13041431 11.57170672 -28.98458688 10.4178707 -27.84135056 9.26147842 C-26.24558641 7.6486436 -24.64060832 6.0455568 -23.03305054 4.44448853 C-22.12372772 3.53152008 -21.21440491 2.61855164 -20.27752686 1.67791748 C-13.92684216 -3.76333642 -7.33334256 -3.82441098 0 0 Z " fill="#FE6C6C" transform="translate(459.7112731933594,81.52084350585938)"/>
<path d="M0 0 C1.10968643 -0.01182816 2.21937286 -0.02365631 3.36268616 -0.0358429 C7.02535859 -0.06869935 10.68728761 -0.07168687 14.35009766 -0.0715332 C16.90068871 -0.08184899 19.45127685 -0.0929122 22.00186157 -0.10469055 C27.34654505 -0.12412087 32.6909542 -0.12776916 38.03564453 -0.12109375 C44.19927877 -0.11385548 50.36176846 -0.14725987 56.52515447 -0.20015115 C62.47109496 -0.24932065 68.41668553 -0.25942183 74.36284256 -0.25470924 C76.8849932 -0.25757934 79.40715725 -0.27163967 81.92918015 -0.2971859 C85.46022682 -0.3291948 88.988477 -0.31659185 92.51953125 -0.29296875 C93.5566777 -0.3118515 94.59382416 -0.33073425 95.66239929 -0.35018921 C102.25918513 -0.2454294 105.68070736 1.17099557 110.44121742 5.77113628 C112.88557648 8.79977855 113.01064867 11.49148901 112.98681641 15.2331543 C112.98359375 16.12583008 112.98037109 17.01850586 112.97705078 17.93823242 C112.96867187 18.86700195 112.96029297 19.79577148 112.95166016 20.75268555 C112.94714844 21.69305664 112.94263672 22.63342773 112.93798828 23.60229492 C112.92620641 25.92332267 112.90975574 28.24422199 112.88916016 30.56518555 C113.75442164 30.55965479 113.75442164 30.55965479 114.63716316 30.5540123 C128.68418245 30.4656084 142.73115995 30.39945034 156.77839851 30.35793686 C163.5716057 30.3373267 170.36462699 30.30923608 177.15771484 30.26342773 C183.71291278 30.21924471 190.26799009 30.19605012 196.82332993 30.18567657 C199.32479772 30.17828351 201.82625491 30.16384672 204.32764053 30.14226532 C207.83031338 30.11324582 211.3321873 30.1092291 214.83496094 30.11108398 C215.87002274 30.09670288 216.90508453 30.08232178 217.97151184 30.06750488 C223.77083635 30.10075506 227.428064 30.474513 231.88916016 34.56518555 C247.8077565 58.44308006 235.88916016 91.86752788 235.88916016 120.56518555 C110.48916016 120.56518555 -14.91083984 120.56518555 -144.11083984 120.56518555 C-144.11083984 42.56518555 -144.11083984 42.56518555 -140.11083984 34.56518555 C-134.99563994 29.62487001 -129.77093465 30.01779588 -123.05664062 30.11108398 C-121.40209618 30.11020782 -121.40209618 30.11020782 -119.71412659 30.10931396 C-116.07781214 30.11209481 -112.44232314 30.14318847 -108.80615234 30.17456055 C-106.28124438 30.18202289 -103.75633062 30.18771585 -101.23141479 30.19171143 C-95.27097431 30.20540969 -89.3107975 30.23691681 -83.35049236 30.27710938 C-76.56213237 30.32188783 -69.77375797 30.34382931 -62.98528695 30.36389112 C-49.02697485 30.40565144 -35.06892352 30.47596537 -21.11083984 30.56518555 C-21.15724609 29.27483398 -21.20365234 27.98448242 -21.25146484 26.6550293 C-21.28900418 24.93760467 -21.32540201 23.22015482 -21.36083984 21.50268555 C-21.39435547 20.65512695 -21.42787109 19.80756836 -21.46240234 18.93432617 C-21.55557744 12.90123886 -20.77482712 9.42421503 -17.11083984 4.56518555 C-11.91709851 -0.31680478 -6.75301895 -0.0219467 0 0 Z " fill="#26BEA5" transform="translate(147.11083984375,-0.565185546875)"/>
<path d="M0 0 C0.09124905 29.58065749 0.162038 59.16130832 0.20426132 88.742077 C0.20926415 92.23430157 0.21444144 95.72652585 0.21972656 99.21875 C0.2207758 99.91398938 0.22182505 100.60922876 0.22290608 101.325536 C0.24031165 112.58298182 0.27185014 123.84034594 0.30861118 135.09774329 C0.34601646 146.64875839 0.36793555 158.199716 0.37635398 169.75079048 C0.38157388 176.23893174 0.39386321 182.72688769 0.42292023 189.21496964 C0.45004055 195.31998808 0.45845171 201.42474462 0.45243073 207.52981758 C0.45353246 209.77199158 0.46150623 212.0141742 0.4768219 214.25629616 C0.49669635 217.31548437 0.49194795 220.37368113 0.48101807 223.43289185 C0.49266943 224.32200575 0.5043208 225.21111965 0.51632524 226.1271764 C0.4543731 232.5336482 -1.34732156 235.92289301 -5.5625 240.8125 C-8.97006317 243.62744349 -13.03036287 243.13779096 -17.19425964 243.12025452 C-17.93186234 243.12110894 -18.66946504 243.12196337 -19.42941934 243.12284368 C-21.90764195 243.12449433 -24.38579727 243.11898388 -26.86401367 243.11352539 C-28.63783263 243.1132434 -30.4116517 243.11340148 -32.18547058 243.1139679 C-37.00746338 243.11425542 -41.82943142 243.10836592 -46.65141845 243.10139394 C-51.68829076 243.09515295 -56.7251636 243.09455601 -61.76203918 243.09336853 C-71.30300635 243.09025742 -80.8439621 243.08204698 -90.38492423 243.07201904 C-101.24572878 243.06085108 -112.10653387 243.05534573 -122.96734273 243.05032361 C-145.31156962 243.0398642 -167.65578084 243.02152144 -190 243 C-190 220.56 -190 198.12 -190 175 C-182.08 173.02 -182.08 173.02 -174 171 C-168.96338167 167.70411325 -168.96338167 167.70411325 -164.65640545 163.89970779 C-163.76682047 163.01517091 -163.76682047 163.01517091 -162.85926408 162.1127646 C-162.22763488 161.4746276 -161.59600568 160.8364906 -160.94523621 160.17901611 C-160.25886198 159.49364517 -159.57248775 158.80827423 -158.8653143 158.10213447 C-156.57364497 155.81141543 -154.28919049 153.51363609 -152.00463867 151.21582031 C-150.36051429 149.56949412 -148.71594115 147.92361597 -147.07095337 146.27815247 C-143.53386224 142.73813052 -139.999948 139.19497796 -136.46846581 135.64936066 C-131.3620209 130.52253739 -126.24989094 125.40141864 -121.13602511 120.2819986 C-112.83769543 111.974423 -104.54347606 103.66275687 -96.25219727 95.34814453 C-95.75641992 94.85097387 -95.26064257 94.35380321 -94.74984167 93.84156677 C-94.25342022 93.34374979 -93.75699877 92.84593281 -93.24553424 92.33303046 C-86.19672554 85.26442576 -79.14692843 78.19680879 -72.09594727 71.13037109 C-71.59926075 70.63259373 -71.10257423 70.13481636 -70.59083661 69.62195483 C-62.32176938 61.33489143 -54.05068468 53.04984356 -45.77857 44.76582217 C-40.21992246 39.19874151 -34.66409573 33.62886493 -29.11048257 28.05676222 C-25.66595216 24.60163152 -22.21942717 21.14849564 -18.77238846 17.69586754 C-17.16742309 16.08741535 -15.56333077 14.4780915 -13.96014977 12.86786079 C-11.78231085 10.68065176 -9.60147897 8.49647253 -7.41984558 6.31304932 C-6.77706278 5.66598943 -6.13427997 5.01892954 -5.4720189 4.35226178 C-1.11406452 0 -1.11406452 0 0 0 Z " fill="#D5E7FD" transform="translate(383,269)"/>
<path d="M0 0 C125.4 0 250.8 0 380 0 C380 25.30335467 380 25.30335467 371.94360352 33.56958008 C371.08240906 34.53678986 370.2212146 35.50399963 369.33392334 36.5005188 C366.99330559 39.11745126 364.58617611 41.66123288 362.14957166 44.18871522 C360.61121043 45.78792703 359.08651145 47.39915222 357.56498528 49.0143795 C352.74679835 54.12210056 347.88761354 59.18491558 342.96089989 64.18808633 C337.92258551 69.30493431 332.99270514 74.48668557 328.20092773 79.83569336 C289.99093166 122.39397542 289.99093166 122.39397542 261.1051048 124.22647464 C249.15541467 124.7992851 237.08671501 124.10225955 225.22241783 122.62371635 C218.48814545 121.59532622 218.48814545 121.59532622 212.30958557 123.79548645 C208.45776496 127.47207277 206.83989732 130.10088316 206.625 135.4375 C206.79925873 139.63365011 207.49488799 142.52516722 210 146 C215.00533754 149.40905338 218.80993744 150.59845871 224.90234375 150.609375 C225.6249086 150.62591125 226.34747345 150.64244751 227.0919342 150.65948486 C229.3738788 150.70762566 231.65515889 150.72925802 233.9375 150.75 C235.49547554 150.77818839 237.05342057 150.8081198 238.61132812 150.83984375 C242.40749725 150.91337405 246.20330482 150.9631543 250 151 C248.64869036 152.56432397 247.29713959 154.12843991 245.94482422 155.69189453 C244.54946356 157.34790001 243.18749894 159.03226535 241.84814453 160.73388672 C239.76925735 163.34264442 237.63582686 165.86056002 235.42358398 168.35473633 C234.52860591 169.39547944 233.66425319 170.46350281 232.83569336 171.55786133 C229.1762634 176.34908874 226.69687776 177.52629405 221 181 C210.77 181 200.54 181 190 181 C190 121.6 190 62.2 190 1 C127.63 1 65.26 1 1 1 C0.67 1.66 0.34 2.32 0 3 C0 2.01 0 1.02 0 0 Z " fill="#D3E7FC" transform="translate(3,120)"/>
<path d="M0 0 C1.1127832 -0.00058411 2.22556641 -0.00116821 3.37207031 -0.00177002 C7.04084745 0.00101101 10.70880663 0.0321056 14.37744141 0.06347656 C16.92476966 0.07093884 19.47210365 0.07663183 22.0194397 0.08062744 C28.03303436 0.09432622 34.0462793 0.12583369 40.05973399 0.1660254 C46.90855269 0.21080247 53.75738568 0.23274499 60.60631442 0.25280714 C74.6890392 0.29456844 88.77150552 0.36488324 102.85400391 0.45410156 C102.86334961 1.33146973 102.87269531 2.20883789 102.88232422 3.11279297 C102.92651994 6.38977578 102.98821042 9.665483 103.06152344 12.94189453 C103.08962783 14.35583604 103.11089458 15.76993158 103.125 17.18408203 C103.14657847 19.22540541 103.19329477 21.26489755 103.24462891 23.30566406 C103.2760498 25.14378662 103.2760498 25.14378662 103.30810547 27.01904297 C104.11787594 32.11451282 106.18348548 35.16418224 110.24723816 38.30207825 C113.21286029 39.61269307 115.32678786 39.84995691 118.56225586 39.88647461 C120.24343254 39.91616585 120.24343254 39.91616585 121.95857239 39.94645691 C123.1576976 39.95284683 124.35682281 39.95923676 125.59228516 39.96582031 C126.82818893 39.98377151 128.06409271 40.00172272 129.33744812 40.0202179 C132.61056632 40.06515398 135.88348754 40.09748272 139.15679932 40.12365723 C142.50198112 40.15352583 145.84687981 40.20028224 149.19189453 40.24511719 C155.74594876 40.3325588 162.29944933 40.39260623 168.85400391 40.45410156 C168.85400391 56.95410156 168.85400391 73.45410156 168.85400391 90.45410156 C106.15400391 90.45410156 43.45400391 90.45410156 -21.14599609 90.45410156 C-21.14599609 12.45410156 -21.14599609 12.45410156 -17.14599609 4.45410156 C-12.01832627 -0.50938526 -6.73580784 -0.09274913 0 0 Z " fill="#2EE5A7" transform="translate(24.14599609375,29.5458984375)"/>
<path d="M0 0 C2.18967406 0.90830271 3.41037895 1.95630125 5.07466441 3.64174289 C5.97514507 4.54256343 5.97514507 4.54256343 6.89381725 5.46158236 C7.8471696 6.4381605 7.8471696 6.4381605 8.8197816 7.43446749 C9.48000316 8.09893389 10.14022472 8.76340029 10.82045299 9.44800204 C12.926333 11.57066688 15.02153988 13.70352729 17.1166566 15.83681124 C18.54304892 17.27825058 19.9701243 18.71901433 21.3979066 20.15907687 C24.89546254 23.68969957 28.38348225 27.22950177 31.8666566 30.77431124 C27.67924218 35.76878667 23.3175847 40.46739296 18.70308238 45.06727999 C18.01279948 45.75931521 17.32251659 46.45135043 16.61131603 47.16435641 C14.34736169 49.43268241 12.07980386 51.69736533 9.8119691 53.96181124 C8.22530577 55.54914904 6.63879083 57.13663519 5.0524171 58.72426242 C1.73381908 62.04433113 -1.58657143 65.36259384 -4.90824574 68.67958468 C-9.15036499 72.91601172 -13.38798492 77.15690639 -17.62426251 81.39917392 C-20.897959 84.67649695 -24.17404966 87.95141839 -27.4508521 91.22563571 C-29.01357589 92.78769578 -30.57556651 94.35048973 -32.13678807 95.91405123 C-34.32576402 98.10558767 -36.51795628 100.29385764 -38.71098012 102.48134249 C-39.34604481 103.11843142 -39.98110951 103.75552035 -40.63541859 104.411915 C-43.61137792 107.37407552 -46.62528275 110.22924804 -49.81757802 112.95755404 C-55.7011853 118.04867854 -61.11847699 123.62831978 -66.60795277 129.13539523 C-67.8502813 130.37800627 -69.09283094 131.62039628 -70.33558339 132.86258334 C-73.68848455 136.21519903 -77.03830588 139.57087645 -80.38756055 142.92713445 C-83.89578814 146.44163745 -87.40687106 149.9532856 -90.91764516 153.46524447 C-97.55634074 160.10704106 -104.19248431 166.75138137 -110.8277027 173.39665151 C-118.38561493 180.96576317 -125.94638619 188.53201621 -133.50739259 196.09803683 C-149.05254751 211.65362826 -164.5941292 227.21278548 -180.1333434 242.77431124 C-182.89128333 241.44073862 -184.9794855 240.18707261 -187.1736266 238.04042453 C-187.73713322 237.4929053 -188.30063985 236.94538607 -188.88122243 236.38127536 C-189.47618016 235.79168032 -190.07113789 235.20208529 -190.68412465 234.59462374 C-191.30232579 233.98545108 -191.92052693 233.37627841 -192.55746144 232.74864596 C-193.85866182 231.46192452 -195.15709314 230.17239762 -196.45292348 228.88026828 C-198.44411226 226.90103199 -200.45319148 224.94121238 -202.46342152 222.98134249 C-203.72563369 221.72858829 -204.98674066 220.47471935 -206.24662465 219.21962374 C-206.85170354 218.63407717 -207.45678242 218.0485306 -208.08019704 217.4452402 C-209.74003285 215.76698703 -209.74003285 215.76698703 -212.1333434 212.77431124 C-211.87956428 209.22109883 -210.20733967 207.4712848 -207.75743836 205.01529616 C-207.02988443 204.27868559 -206.3023305 203.54207502 -205.55272949 202.78314292 C-204.74516261 201.98090398 -203.93759574 201.17866503 -203.10555714 200.35211581 C-202.25406254 199.4945301 -201.40256793 198.63694439 -200.52527046 197.75337124 C-198.15772379 195.37203175 -195.78359378 192.99762056 -193.40642911 190.62590486 C-190.84543175 188.06757297 -188.29304833 185.50067177 -185.73951405 182.93489474 C-180.73499085 177.9092967 -175.72221857 172.89200551 -170.70625737 167.87782594 C-166.63125428 163.80412915 -162.55881139 159.72789023 -158.48818082 155.64982432 C-157.31680417 154.47634856 -156.14542677 153.30287355 -154.97404861 152.1293993 C-154.39107987 151.54538702 -153.80811112 150.96137475 -153.20747665 150.35966513 C-142.17727415 139.31055285 -131.13710326 128.27144218 -120.09403405 117.23519186 C-109.98197659 107.12871362 -99.88319404 97.00908702 -89.7904888 86.88328614 C-79.43542463 76.49452896 -69.07115333 66.11503963 -58.69691467 55.74542904 C-52.86936201 49.9201251 -47.04564538 44.09110218 -41.23164624 38.25226802 C-36.28337964 33.28304522 -31.32657826 28.32253849 -26.35834935 23.37327071 C-23.82190626 20.84601966 -21.28972682 18.31484347 -18.76816815 15.77273387 C-16.03954264 13.02211581 -13.29196983 10.29095789 -10.54208058 7.56158847 C-9.74120587 6.74819591 -8.94033116 5.93480335 -8.11518753 5.09676254 C-7.01212177 4.01140479 -7.01212177 4.01140479 -5.88677186 2.90412062 C-4.9375247 1.95446489 -4.9375247 1.95446489 -3.96910083 0.98562419 C-2.1333434 -0.22568876 -2.1333434 -0.22568876 0 0 Z " fill="#FE3376" transform="translate(430.133343398571,159.22568875551224)"/>
<path d="M0 0 C1.25707008 -0.01007584 1.25707008 -0.01007584 2.53953552 -0.02035522 C5.3032732 -0.03931534 8.06676779 -0.04325836 10.83056641 -0.04541016 C12.75721333 -0.05183927 14.68385927 -0.05856772 16.61050415 -0.06558228 C20.6470974 -0.07754993 24.6836051 -0.0812636 28.72021484 -0.08007812 C33.88406871 -0.07987492 39.04737232 -0.10718067 44.21109581 -0.14162254 C48.19003808 -0.16389624 52.168848 -0.16791553 56.14784622 -0.16685867 C58.05118329 -0.16921378 59.95452405 -0.1780322 61.85779953 -0.19352341 C64.52407769 -0.2131937 67.18917012 -0.20734161 69.85546875 -0.1953125 C70.63596085 -0.20655151 71.41645294 -0.21779053 72.22059631 -0.22937012 C77.76565921 -0.16603186 80.98016999 1.13037519 85.55712891 4.29052734 C91.0417237 10.6820806 90.12161545 18.42871656 90.05322266 26.41943359 C90.05337784 27.89721243 90.05486996 29.37499168 90.05763245 30.85276794 C90.05901235 33.94019708 90.04652632 37.02715935 90.02368164 40.11450195 C89.99527272 44.06099946 89.99804632 48.00672356 90.01077175 51.95327854 C90.01774388 55.0014653 90.00992268 58.04947495 89.99751472 61.09763908 C89.99301685 62.55241147 89.99264881 64.00720298 89.99658012 65.46197701 C89.99950774 67.49803954 89.98077032 69.53409795 89.96118164 71.57006836 C89.95577866 72.72587906 89.95037567 73.88168976 89.94480896 75.07252502 C89.42768081 79.36503265 87.98713227 82.75864079 85.02197266 85.93505859 C79.78765456 89.93777243 76.81987286 90.44594229 70.34716797 90.4675293 C69.49819946 90.47410049 68.64923096 90.48067169 67.77453613 90.48744202 C64.95727454 90.50719645 62.14006633 90.518843 59.32275391 90.52880859 C58.36121147 90.53288412 57.39966904 90.53695965 56.40898895 90.54115868 C51.31872267 90.56202958 46.22848343 90.5763263 41.13818359 90.58569336 C35.88113742 90.59675378 30.624515 90.63114658 25.36761856 90.67086506 C21.32524837 90.69701764 17.28297928 90.70538404 13.24053192 90.70897484 C11.30286551 90.71384511 9.36520375 90.72547162 7.42761993 90.74401283 C4.71296195 90.76837306 1.9994019 90.7674449 -0.71533203 90.76049805 C-1.51348328 90.77330811 -2.31163452 90.78611816 -3.13397217 90.79931641 C-8.35297762 90.75072474 -11.36605559 89.82633284 -15.44287109 86.29052734 C-19.10048338 81.9041728 -19.94965828 78.86528607 -19.9921875 73.20288086 C-20.00240936 72.52074524 -20.01263123 71.83860962 -20.02316284 71.13580322 C-20.0508038 68.89664936 -20.04905402 66.65873703 -20.04443359 64.41943359 C-20.05221566 62.85293629 -20.06088668 61.28644317 -20.07040405 59.71995544 C-20.08529554 56.44247739 -20.08477038 53.16543034 -20.07421875 49.88793945 C-20.06262921 45.70004758 -20.09650081 41.51392485 -20.1429081 37.32632542 C-20.17245689 34.09276624 -20.1741166 30.85962968 -20.16788864 27.6259594 C-20.16891129 26.08265617 -20.1793161 24.53932811 -20.19951248 22.99615669 C-20.35494041 9.46066938 -20.35494041 9.46066938 -16.70996094 4.9152832 C-11.91016438 0.21529217 -6.41617107 -0.00741254 0 0 Z " fill="#00CEF5" transform="translate(64.44287109375,180.70947265625)"/>
<path d="M0 0 C2.85779017 1.29719924 4.91008536 2.6636826 7.11621094 4.88916016 C7.98666046 5.75983627 7.98666046 5.75983627 8.87469482 6.64810181 C9.48838928 7.27211884 10.10208374 7.89613586 10.734375 8.5390625 C11.37240051 9.17991791 12.01042603 9.82077332 12.66778564 10.48104858 C14.69994069 12.52437821 16.72502218 14.57455982 18.75 16.625 C20.1284453 18.0134786 21.50734636 19.4015049 22.88671875 20.7890625 C26.26311894 24.18748697 29.63319288 27.59207254 33 31 C28.83174662 35.9721262 24.49244504 40.64720445 19.89306641 45.22045898 C19.20944031 45.90423111 18.52581421 46.58800323 17.82147217 47.29249573 C15.583867 49.52940983 13.34275155 51.76277089 11.1015625 53.99609375 C9.54050184 55.55528737 7.97966327 57.11470339 6.41903687 58.67433167 C2.32779371 62.7617722 -1.76644458 66.8461996 -5.86132812 70.92999268 C-10.0460949 75.1044967 -14.22800241 79.28186292 -18.41015625 83.45898438 C-26.60398551 91.64211611 -34.80098392 99.82206539 -43 108 C-42.38125 108.45375 -41.7625 108.9075 -41.125 109.375 C-39 111 -39 111 -37 113 C-48.63087981 113.06954118 -60.26171006 113.1228323 -71.89275551 113.15543652 C-77.29365004 113.17108569 -82.69440223 113.19231052 -88.09521484 113.22631836 C-93.30827609 113.25893817 -98.52120049 113.27685864 -103.73435593 113.28463173 C-105.72225473 113.2901705 -107.71014613 113.30098638 -109.6979866 113.31719017 C-112.48453142 113.33899914 -115.27051233 113.34196546 -118.05712891 113.34057617 C-118.87712372 113.351362 -119.69711853 113.36214783 -120.54196167 113.3732605 C-126.2878945 113.34230621 -130.22962192 112.09773484 -134.8984375 108.5625 C-138.20591717 105.06252152 -139.4701665 102.35044731 -139.75 97.5 C-139.47336243 92.59474355 -138.1443728 89.87351028 -134.80078125 86.33984375 C-130.15222811 82.88115888 -125.51722741 82.71905545 -119.9050293 82.77294922 C-119.10450638 82.77265717 -118.30398346 82.77236511 -117.47920227 82.77206421 C-114.84409592 82.77345295 -112.20927546 82.78899261 -109.57421875 82.8046875 C-107.74290623 82.80841925 -105.91159172 82.81126546 -104.08027649 82.81326294 C-99.26832534 82.82088663 -94.45649559 82.84052427 -89.64459229 82.8626709 C-84.73117718 82.88315656 -79.8177424 82.89227047 -74.90429688 82.90234375 C-65.26946943 82.92377136 -55.63476382 82.95894322 -46 83 C-43.03 68.15 -43.03 68.15 -40 53 C-43.89039063 53.0314209 -43.89039063 53.0314209 -47.859375 53.06347656 C-56.4447421 53.1298632 -65.03012077 53.17398197 -73.61567688 53.20724869 C-78.81928119 53.22809109 -84.02262171 53.25634765 -89.22607422 53.30175781 C-94.25112488 53.34533483 -99.27592237 53.36916227 -104.30114746 53.37950897 C-106.21484358 53.38687907 -108.12852641 53.40127115 -110.04211426 53.42292023 C-112.73019968 53.45211199 -115.4172494 53.45594945 -118.10546875 53.45410156 C-118.89022079 53.46848267 -119.67497284 53.48286377 -120.48350525 53.49768066 C-126.02976109 53.45663654 -130.40333022 52.18268126 -135 49 C-138.91711463 44.63038863 -139.64124358 40.14226804 -139.38671875 34.3671875 C-138.64980979 29.85641143 -136.43352059 27.18341463 -132.99073792 24.34129333 C-128.57851203 22.36248765 -124.60522234 22.76721802 -119.83569336 22.97680664 C-117.71720646 23.04249235 -115.59871137 23.10791469 -113.48020935 23.17311096 C-111.79784589 23.23300799 -111.79784589 23.23300799 -110.08149529 23.29411507 C-104.10450327 23.4927538 -98.12550905 23.59458044 -92.14648438 23.71289062 C-84.55385653 23.86807769 -76.96539521 24.05096384 -69.37670898 24.34399414 C-38.43730402 27.21999305 -38.43730402 27.21999305 -11.19813538 15.91612244 C-7.5741003 11.87528615 -4.61789765 7.74635424 -2 3 C-1.34 2.01 -0.68 1.02 0 0 Z " fill="#FBEC63" transform="translate(184,339)"/>
<path d="M0 0 C1.10968643 -0.01182816 2.21937286 -0.02365631 3.36268616 -0.0358429 C7.02535859 -0.06869935 10.68728761 -0.07168687 14.35009766 -0.0715332 C16.90068871 -0.08184899 19.45127685 -0.0929122 22.00186157 -0.10469055 C27.34654505 -0.12412087 32.6909542 -0.12776916 38.03564453 -0.12109375 C44.19927877 -0.11385548 50.36176846 -0.14725987 56.52515447 -0.20015115 C62.47109496 -0.24932065 68.41668553 -0.25942183 74.36284256 -0.25470924 C76.8849932 -0.25757934 79.40715725 -0.27163967 81.92918015 -0.2971859 C85.46022682 -0.3291948 88.988477 -0.31659185 92.51953125 -0.29296875 C93.5566777 -0.3118515 94.59382416 -0.33073425 95.66239929 -0.35018921 C102.25918513 -0.2454294 105.68070736 1.17099557 110.44121742 5.77113628 C112.89163577 8.80728621 113.01998609 11.55476498 113.05029297 15.30859375 C113.05990051 16.27001785 113.06950806 17.23144196 113.07940674 18.22200012 C113.08578156 19.77826363 113.08578156 19.77826363 113.09228516 21.3659668 C113.09798523 22.43509811 113.1036853 23.50422943 113.10955811 24.60575867 C113.11900832 26.86948659 113.12554217 29.13322828 113.12939453 31.39697266 C113.1390928 34.85367963 113.17011359 38.3097902 113.20166016 41.76635742 C113.20819107 43.96622368 113.21344119 46.1660942 113.21728516 48.3659668 C113.22963196 49.39740311 113.24197876 50.42883942 113.25469971 51.49153137 C113.23788118 56.93246541 113.01956935 60.8980046 109.88916016 65.56518555 C105.99089992 69.08312771 103.60592889 70.68534162 98.39910889 70.71235657 C97.45423111 70.71951187 96.50935333 70.72666718 95.5358429 70.73403931 C94.49582626 70.73672821 93.45580963 70.73941711 92.38427734 70.7421875 C91.29146957 70.7487587 90.1986618 70.7553299 89.07273865 70.76210022 C85.44383685 70.78186647 81.81497649 70.79350331 78.18603516 70.8034668 C76.94867867 70.80754232 75.71132217 70.81161785 74.43647003 70.81581688 C68.56317189 70.83453771 62.68988697 70.84910003 56.81656623 70.85742885 C50.04107804 70.86719594 43.26591702 70.89350036 36.49054408 70.93392974 C30.61939357 70.96775858 24.74835256 70.97957641 18.87711334 70.98363304 C16.38123608 70.9885095 13.88536258 71.0001534 11.38954926 71.01867104 C7.89664073 71.04297535 4.404588 71.04211285 0.91162109 71.03515625 C-0.12029861 71.04796631 -1.15221832 71.06077637 -2.21540833 71.07397461 C-8.19098052 71.03057873 -11.54035859 70.50631576 -16.11083984 66.56518555 C-21.66394052 60.92822932 -20.78136669 53.90718584 -20.86083984 46.37768555 C-20.88588017 45.02601802 -20.91217363 43.67437315 -20.93969727 42.32275391 C-20.99085424 39.6423578 -21.02837507 36.96280292 -21.05957031 34.28198242 C-21.10406959 31.05599673 -21.19062226 27.8362506 -21.30224609 24.61206055 C-21.34410573 22.95063921 -21.3846016 21.2891826 -21.42333984 19.62768555 C-21.45331055 18.89718994 -21.48328125 18.16669434 -21.51416016 17.4140625 C-21.56946675 12.33246872 -20.47598835 8.3677637 -17.11083984 4.56518555 C-11.69734686 -0.10476528 -6.96732538 -0.02264318 0 0 Z " fill="#283366" transform="translate(147.11083984375,-0.565185546875)"/>
<path d="M0 0 C5.81931085 3.03482841 10.13587536 7.73779559 14.71411133 12.35668945 C15.68139987 13.32127749 16.64928101 14.28527158 17.61772156 15.248703 C19.63533383 17.26044932 21.6456139 19.27917087 23.65087891 21.30322266 C26.21052923 23.88569152 28.78776635 26.44973959 31.37077045 29.00882435 C33.36928503 30.99282834 35.35810569 32.98633112 37.34419823 34.98276329 C38.74746361 36.38996008 40.15872749 37.78916623 41.57014465 39.18818665 C50.98713872 48.74407459 50.98713872 48.74407459 51.62817383 56.02856445 C51.49088867 57.07850586 51.49088867 57.07850586 51.35083008 58.1496582 C51.27735352 58.85219727 51.20387695 59.55473633 51.12817383 60.27856445 C48.83992677 67.66847708 42.38250658 72.87607167 37.05395508 78.1418457 C36.14957703 79.04339386 35.24519897 79.94494202 34.31341553 80.87380981 C31.92338008 83.25457915 29.52911111 85.63091908 27.13262939 88.00518799 C24.68217132 90.43508391 22.23745732 92.87074425 19.79223633 95.3059082 C15.00451397 100.07162483 10.2111218 104.83158 5.41333008 109.5871582 C1.23717209 107.94971886 -1.55148522 104.88934028 -4.64038086 101.76049805 C-5.23593277 101.16523819 -5.83148468 100.56997833 -6.44508362 99.9566803 C-8.40851635 97.99185644 -10.36477365 96.02004782 -12.32104492 94.0480957 C-13.68252632 92.68288341 -15.04445053 91.31811259 -16.40679932 89.95376587 C-19.98850816 86.36442662 -23.56416982 82.7691214 -27.13861084 79.17254639 C-30.78824113 75.50244501 -34.44355084 71.83800992 -38.09838867 68.1730957 C-45.26672322 60.98332168 -52.42868292 53.78723305 -59.58666992 46.5871582 C-58.11047675 43.17598307 -56.19500686 40.93739652 -53.58349609 38.30932617 C-52.75891403 37.4752121 -51.93433197 36.64109802 -51.08476257 35.78170776 C-50.19207169 34.88992828 -49.2993808 33.9981488 -48.37963867 33.0793457 C-47.46209305 32.15751495 -46.54454742 31.2356842 -45.59919739 30.28591919 C-43.65822891 28.33749979 -41.7134444 26.39298721 -39.76611328 24.45092773 C-37.27606919 21.96667846 -34.79757715 19.47124945 -32.32206249 16.97253227 C-29.95235677 14.58451907 -27.57166003 12.20757829 -25.19213867 9.8293457 C-24.30552048 8.93351776 -23.41890228 8.03768982 -22.50541687 7.11471558 C-21.67137833 6.28690582 -20.83733978 5.45909607 -19.97802734 4.60620117 C-19.24903732 3.87658173 -18.5200473 3.14696228 -17.76896667 2.39523315 C-12.2859242 -2.14757329 -6.55514155 -2.58216623 0 0 Z " fill="#FEBC33" transform="translate(457.586669921875,80.412841796875)"/>
<path d="M0 0 C0.68793422 -0.0034177 1.37586844 -0.0068354 2.08464915 -0.01035666 C4.37120387 -0.01690301 6.65656336 0.00498444 8.94300842 0.0269165 C10.58933993 0.02804569 12.23567345 0.02740972 13.88200378 0.02514648 C18.3382364 0.0240012 22.7940363 0.04748035 27.25016856 0.07544231 C31.91196533 0.10048693 36.57377256 0.10280038 41.23562622 0.10754395 C50.05760598 0.11996473 58.87938692 0.1527742 67.70127922 0.1929419 C77.74717153 0.23768754 87.79307345 0.25965368 97.83904064 0.27972364 C118.49888882 0.32150762 139.15855815 0.39184223 159.81825256 0.48101807 C158.46550049 2.04908716 157.11230728 3.61677663 155.75770378 5.18324661 C154.37238395 6.82450901 153.01838052 8.4924135 151.6860981 10.1770134 C142.7899382 21.28178139 134.46894332 31.30036196 119.61225796 32.96149635 C113.32435593 33.24320344 107.10405209 33.17714102 100.81756663 32.91187334 C97.03098695 32.77674624 93.24397157 32.77439984 89.45535278 32.75552368 C83.11803347 32.70631247 76.78726058 32.57470554 70.45277405 32.38092041 C61.52870336 32.10801041 52.60713334 31.98624292 43.6796149 31.89413953 C31.05243128 31.75536374 18.42523479 31.5468173 5.80238342 31.18658447 C4.56968719 31.16123627 3.33699097 31.13588806 2.06694031 31.10977173 C-5.04852433 30.87577989 -9.94849277 30.27734643 -15.49424744 25.48101807 C-18.68477649 21.6996503 -18.52404118 17.71534794 -18.45518494 12.98492432 C-18.04177304 9.19925254 -16.75328011 7.25036094 -14.18174744 4.48101807 C-9.21813708 1.17451267 -6.08486605 -0.01831412 0 0 Z " fill="#414B81" transform="translate(63.18174743652344,300.51898193359375)"/>
<path d="M0 0 C1.67171265 0.00604248 1.67171265 0.00604248 3.37719727 0.01220703 C7.52507073 0.03307471 11.67270881 0.08892008 15.8203125 0.140625 C25.1015625 0.223125 34.3828125 0.305625 43.9453125 0.390625 C43.9453125 23.490625 43.9453125 46.590625 43.9453125 70.390625 C34.8290625 70.473125 25.7128125 70.555625 16.3203125 70.640625 C13.45134277 70.67704102 10.58237305 70.71345703 7.62646484 70.75097656 C5.34473417 70.76266236 3.06299515 70.77285444 0.78125 70.78125 C-0.98641724 70.8119458 -0.98641724 70.8119458 -2.78979492 70.84326172 C-9.19451244 70.84598655 -13.22196766 70.76967943 -18.0546875 66.390625 C-23.60778818 60.75366878 -22.72521435 53.7326253 -22.8046875 46.203125 C-22.82972783 44.85145747 -22.85602129 43.4998126 -22.88354492 42.14819336 C-22.9347019 39.46779726 -22.97222273 36.78824237 -23.00341797 34.10742188 C-23.04791725 30.88143618 -23.13446991 27.66169006 -23.24609375 24.4375 C-23.28795338 22.77607866 -23.32844925 21.11462205 -23.3671875 19.453125 C-23.3971582 18.72262939 -23.42712891 17.99213379 -23.45800781 17.23950195 C-23.51331441 12.15790817 -22.41983601 8.19320315 -19.0546875 4.390625 C-13.41882425 -0.8757702 -7.39246939 -0.12606158 0 0 Z " fill="#404A80" transform="translate(149.0546875,-0.390625)"/>
<path d="M0 0 C2.85779017 1.29719924 4.91008536 2.6636826 7.11621094 4.88916016 C7.69651062 5.4696109 8.2768103 6.05006165 8.87469482 6.64810181 C9.48838928 7.27211884 10.10208374 7.89613586 10.734375 8.5390625 C11.37240051 9.17991791 12.01042603 9.82077332 12.66778564 10.48104858 C14.69994069 12.52437821 16.72502218 14.57455982 18.75 16.625 C20.1284453 18.0134786 21.50734636 19.4015049 22.88671875 20.7890625 C26.26311894 24.18748697 29.63319288 27.59207254 33 31 C28.87289775 35.90654832 24.60271892 40.58040014 20.09765625 45.140625 C19.4568663 45.78948669 18.81607635 46.43834839 18.15586853 47.10687256 C16.81021372 48.46625719 15.46307119 49.82417062 14.11450195 51.18066406 C12.74380049 52.56294432 11.37759297 53.94969507 10.01586914 55.34082031 C8.03206472 57.36734108 6.03529445 59.3802387 4.03515625 61.390625 C3.4338942 62.00939514 2.83263214 62.62816528 2.21315002 63.26568604 C-4.7290723 70.1729351 -12.44160082 71.71581834 -21.8125 73.48046875 C-22.94018799 73.69818436 -24.06787598 73.91589996 -25.22973633 74.14021301 C-27.60586734 74.59693915 -29.98276006 75.04971807 -32.36035156 75.4987793 C-35.98980777 76.18557135 -39.61604336 76.88775086 -43.2421875 77.59179688 C-45.55711536 78.03477653 -47.87221416 78.47686396 -50.1875 78.91796875 C-51.26684814 79.12729538 -52.34619629 79.33662201 -53.45825195 79.55229187 C-62.43874903 81.23311433 -68.16074158 82.1195157 -76 77 C-71.83174662 72.0278738 -67.49244504 67.35279555 -62.89306641 62.77954102 C-62.20944031 62.09576889 -61.52581421 61.41199677 -60.82147217 60.70750427 C-58.583867 58.47059017 -56.34275155 56.23722911 -54.1015625 54.00390625 C-52.54050184 52.44471263 -50.97966327 50.88529661 -49.41903687 49.32566833 C-45.32779371 45.2382278 -41.23355542 41.1538004 -37.13867188 37.07000732 C-32.9539051 32.8955033 -28.77199759 28.71813708 -24.58984375 24.54101562 C-16.39601449 16.35788389 -8.19901608 8.17793461 0 0 Z " fill="#FEBB34" transform="translate(216,371)"/>
<path d="M0 0 C6.16438641 3.1993016 10.68884344 8.45697992 15.45703125 13.3984375 C16.43134597 14.39285455 17.40659972 15.38635245 18.3828125 16.37890625 C20.75025476 18.79322855 23.10780828 21.2164057 25.45703125 23.6484375 C20.20883068 30.01352317 14.43231673 35.80166725 8.58984375 41.61328125 C7.544448 42.65680829 6.4992755 43.70055902 5.45431519 44.74452209 C2.72430285 47.47074495 -0.00870068 50.19394931 -2.74237061 52.91650391 C-5.53972029 55.70356209 -8.33418576 58.49350896 -11.12890625 61.28320312 C-16.59746569 66.74108831 -22.0691932 72.19578309 -27.54296875 77.6484375 C-32.12961219 73.81283117 -36.48951431 69.84205194 -40.6953125 65.59375 C-41.24030899 65.04733856 -41.78530548 64.50092712 -42.34681702 63.93795776 C-44.06042993 62.21881692 -45.77050319 60.49620546 -47.48046875 58.7734375 C-48.65276079 57.59612112 -49.82528489 56.41903576 -50.99804688 55.2421875 C-53.84903857 52.38026261 -56.6968649 49.51522293 -59.54296875 46.6484375 C-58.06677558 43.23726237 -56.15130568 40.99867582 -53.53979492 38.37060547 C-52.71521286 37.53649139 -51.8906308 36.70237732 -51.0410614 35.84298706 C-50.14837051 34.95120758 -49.25567963 34.0594281 -48.3359375 33.140625 C-47.41839188 32.21879425 -46.50084625 31.2969635 -45.55549622 30.34719849 C-43.61452774 28.39877908 -41.66974323 26.45426651 -39.72241211 24.51220703 C-37.23236801 22.02795776 -34.75387598 19.53252874 -32.27836132 17.03381157 C-29.9086556 14.64579836 -27.52795885 12.26885759 -25.1484375 9.890625 C-24.26181931 8.99479706 -23.37520111 8.09896912 -22.4617157 7.17599487 C-21.62767715 6.34818512 -20.79363861 5.52037537 -19.93432617 4.66748047 C-19.20533615 3.93786102 -18.47634613 3.20824158 -17.7252655 2.45651245 C-12.26217595 -2.06976261 -6.55543415 -2.50074996 0 0 Z " fill="#FCEC62" transform="translate(457.54296875,80.3515625)"/>
<path d="M0 0 C1.04436218 -0.00043808 2.08872437 -0.00087616 3.16473389 -0.00132751 C6.61155996 0.00076 10.05789772 0.02408998 13.50463867 0.04760742 C15.89645624 0.05320349 18.28827725 0.05747354 20.68009949 0.06047058 C26.97168491 0.07191842 33.26306218 0.10138539 39.55456543 0.13458252 C45.97604558 0.16528452 52.39755939 0.17897622 58.8190918 0.1940918 C71.41618575 0.22625489 84.01313551 0.27687312 96.61010742 0.34057617 C94.36702462 5.19098667 90.78280832 8.17526007 86.92260742 11.80541992 C83.28446774 15.79385346 82.36919034 19.91172746 81.48510742 25.15307617 C81.3175293 26.12889648 81.14995117 27.1047168 80.97729492 28.11010742 C80.79553711 29.21418945 80.79553711 29.21418945 80.61010742 30.34057617 C69.27456873 30.43340071 57.93912098 30.50440448 46.60327911 30.54782486 C41.33914226 30.56866822 36.07526612 30.59692658 30.8112793 30.64233398 C25.72787424 30.68590752 20.64471942 30.70973773 15.56114197 30.72008514 C13.62511763 30.72745586 11.68910643 30.74184915 9.75318909 30.7634964 C7.03397402 30.79268345 4.31578294 30.79652581 1.59643555 30.79467773 C0.80233276 30.80905884 0.00822998 30.82343994 -0.80993652 30.83825684 C-6.38183628 30.79748465 -10.77277124 29.54356543 -15.38989258 26.34057617 C-19.3066141 21.97029999 -20.03115786 17.48333673 -19.77661133 11.70776367 C-19.04149613 7.20796764 -16.83800263 4.53008526 -13.39472961 1.70170593 C-8.94928047 -0.31199167 -4.82542484 -0.05297039 0 0 Z " fill="#424C81" transform="translate(64.389892578125,361.659423828125)"/>
<path d="M0 0 C0.80052292 -0.00029205 1.60104584 -0.00058411 2.42582703 -0.00088501 C5.06093338 0.00050373 7.69575384 0.01604339 10.33081055 0.03173828 C12.16212306 0.03547003 13.99343758 0.03831624 15.82475281 0.04031372 C20.63670395 0.04793741 25.44853371 0.06757505 30.26043701 0.08972168 C35.17385211 0.11020734 40.08728689 0.11932126 45.00073242 0.12939453 C54.63555128 0.15082213 64.27028018 0.18494283 73.9050293 0.22705078 C73.83560623 0.84696396 73.76618317 1.46687714 73.69465637 2.10557556 C73.60399399 2.91773026 73.5133316 3.72988495 73.41992188 4.56665039 C73.32987381 5.37218857 73.23982574 6.17772675 73.14704895 7.00767517 C72.36270305 14.20030662 72.27311874 20.24767533 76.9050293 26.22705078 C79.97265767 28.26529752 79.97265767 28.26529752 82.9050293 29.22705078 C82.9050293 29.55705078 82.9050293 29.88705078 82.9050293 30.22705078 C71.27414949 30.29659196 59.64331923 30.34988308 48.01227379 30.3824873 C42.61137925 30.39813648 37.21062707 30.4193613 31.80981445 30.45336914 C26.59675321 30.48598895 21.38382881 30.50390943 16.17067337 30.51168251 C14.18277457 30.51722128 12.19488317 30.52803717 10.20704269 30.54424095 C7.42049787 30.56604992 4.63451696 30.56901624 1.84790039 30.56762695 C1.02790558 30.57841278 0.20791077 30.58919861 -0.63693237 30.60031128 C-6.3828652 30.56935699 -10.32459262 29.32478562 -14.9934082 25.78955078 C-18.30088787 22.2895723 -19.5651372 19.5774981 -19.8449707 14.72705078 C-19.56833313 9.82179433 -18.23934351 7.10056106 -14.89575195 3.56689453 C-10.24719881 0.10820966 -5.61219811 -0.05389377 0 0 Z " fill="#424C81" transform="translate(64.094970703125,421.77294921875)"/>
<path d="M0 0 C1.3422931 -0.00269848 2.68458428 -0.00658385 4.02687073 -0.01159668 C6.83361509 -0.01747723 9.6398485 -0.00897789 12.4465332 0.00976562 C16.02881113 0.03253348 19.6098887 0.01943854 23.19212246 -0.00452423 C25.96243688 -0.01904097 28.73247099 -0.0143493 31.50279427 -0.00401306 C33.46080944 -0.00007875 35.41883588 -0.0121442 37.3768158 -0.02453613 C44.22255372 0.04731133 48.78960867 0.34345955 54.31640625 4.53125 C57.24334788 7.67826243 58.23477049 10.86650163 58.75390625 15.09375 C58.07729951 20.4099458 56.33927511 23.85125937 52.31640625 27.34375 C48.2679011 30.29578501 45.56951367 30.66239709 40.68676758 30.72412109 C39.53159134 30.74018402 38.3764151 30.75624695 37.18623352 30.77279663 C31.89815818 30.81731891 26.61023066 30.85875593 21.32202148 30.88134766 C18.53522723 30.89465985 15.74916994 30.9224632 12.96264648 30.96337891 C8.94111926 31.02241719 4.92037585 31.04003723 0.8984375 31.0546875 C-0.34141403 31.07735687 -1.58126556 31.10002625 -2.85868835 31.12338257 C-10.02031719 31.10595131 -15.25966628 30.49727722 -20.68359375 25.53125 C-23.66583473 21.43066865 -24.22288608 17.66457319 -24.03125 12.70703125 C-23.29522309 8.10066056 -20.69130784 5.46933708 -17.39038086 2.39648438 C-12.27262722 -0.88706745 -5.84599286 -0.03694049 0 0 Z " fill="#2A3567" transform="translate(232.68359375,180.46875)"/>
<path d="M0 0 C1.28087494 0.00030212 2.56174988 0.00060425 3.88143921 0.00091553 C5.26422764 0.02133745 6.6470096 0.04220135 8.02978516 0.06347656 C9.45609746 0.07094482 10.88242007 0.07663499 12.30874634 0.08062744 C16.04739127 0.09583808 19.78540623 0.13507899 23.52380371 0.17944336 C27.34472127 0.22049572 31.16574147 0.2386596 34.98681641 0.25878906 C42.47277947 0.30157896 49.958225 0.36977322 57.44384766 0.45410156 C56.87111115 1.11261864 56.87111115 1.11261864 56.2868042 1.78443909 C53.077813 5.49712076 50.02188106 9.28398964 47.02197266 13.16894531 C33.0159788 30.32103855 33.0159788 30.32103855 21.90545654 31.89634705 C18.07049609 32.22860295 14.28948744 32.26806359 10.44384766 32.14160156 C9.70074341 32.1185495 8.95763916 32.09549744 8.1920166 32.07174683 C0.59380885 31.74001569 -6.37902943 31.22984734 -12.55615234 26.45410156 C-16.36245347 22.26717032 -16.91358103 18.21672085 -16.83349609 12.73535156 C-16.39481686 9.12706039 -14.93334043 7.14407755 -12.55615234 4.45410156 C-8.2340249 1.07744702 -5.47149504 -0.04325293 0 0 Z " fill="#2A3466" transform="translate(225.55615234375,240.5458984375)"/>
<path d="M0 0 C9.9 0 19.8 0 30 0 C24.94424602 5.89837965 19.73916721 11.44703234 14.2578125 16.92749023 C12.73407487 18.45344834 11.2185557 19.98728145 9.703125 21.52148438 C8.7348633 22.49267457 7.76613071 23.46339558 6.796875 24.43359375 C5.92385742 25.31072021 5.05083984 26.18784668 4.15136719 27.09155273 C2 29 2 29 0 29 C0 19.43 0 9.86 0 0 Z " fill="#2E3567" transform="translate(193,301)"/>
</svg>
